<svg width="600" height="300" viewBox="0 0 600 300" xmlns="http://www.w3.org/2000/svg" style="background-color: #050A1F; font-family: 'Courier New', monospace;">
  <defs>
    <filter id="glow" x="-20%" y="-20%" width="140%" height="140%">
      <feGaussianBlur stdDeviation="3" result="blur" />
      <feMerge>
        <feMergeNode in="blur" />
        <feMergeNode in="SourceGraphic" />
      </feMerge>
    </filter>
  </defs>
  <g stroke="#0077B6" stroke-width="1" fill="none" opacity="0.6">
    <circle cx="300" cy="150" r="100" />
    <circle cx="300" cy="150" r="70" />
    <circle cx="300" cy="150" r="40" />
    <line x1="300" y1="30" x2="300" y2="270" />
    <line x1="180" y1="150" x2="420" y2="150" />
  </g>
  <circle cx="340" cy="110" r="3" fill="#00BFFF" filter="url(#glow)"/>
  <circle cx="270" cy="180" r="4" fill="#90E0EF" filter="url(#glow)"/>
  <circle cx="310" cy="130" r="2" fill="#00BFFF" filter="url(#glow)"/>
  <g fill="#00B4D8" font-size="12" font-weight="bold">
    <text x="50" y="80">SPD: MACH 2.4</text>
    <text x="50" y="110">ALT: 42,000 FT</text>
    <text x="50" y="140">CMT: 1,024 BLKS</text>
    <text x="50" y="170">STRK: 42 DAYS</text>
  </g>
  <g stroke="#00B4D8" stroke-width="2" opacity="0.8">
    <line x1="130" y1="105" x2="150" y2="105" />
    <line x1="140" y1="135" x2="160" y2="135" />
    <line x1="130" y1="165" x2="150" y2="165" />
  </g>
  <g fill="#90E0EF" font-size="12">
    <text x="450" y="80">SYS_CHK: OK</text>
    <text x="450" y="110">L_WPN: PYTHON</text>
    <text x="450" y="140">R_WPN: GO_LANG</text>
    <text x="450" y="170">DEF: C_PLUS_PLUS</text>
    <text x="450" y="200" fill="#00BFFF" filter="url(#glow)">TRK: LOCKED</text>
  </g>
  <g stroke="#00BFFF" stroke-width="1.5" fill="none" filter="url(#glow)">
    <path d="M 280 140 L 280 130 L 290 130" />
    <path d="M 320 140 L 320 130 L 310 130" />
    <path d="M 280 160 L 280 170 L 290 170" />
    <path d="M 320 160 L 320 170 L 310 170" />
  </g>
</svg>
